<?xml version="1.0" encoding="utf-8"?>
<!-- Generator: Adobe Illustrator 27.9.0, SVG Export Plug-In . SVG Version: 6.00 Build 0)  -->
<svg version="1.1" id="Calque_1" xmlns="http://www.w3.org/2000/svg" xmlns:xlink="http://www.w3.org/1999/xlink" x="0px" y="0px"
	 viewBox="0 0 100 91.4" style="enable-background:new 0 0 100 91.4;" xml:space="preserve">
<g>
	<path d="M80.5,61.2H35.1c-0.7,0-1.2-0.4-1.5-1l-12.8-38c0,0,0,0,0-0.1l-3.7-10.9c-0.6-1.7-2.1-2.9-3.9-3.1L3.9,7.3
		C3.1,7.2,2.4,6.5,2.5,5.6c0.1-0.8,0.8-1.5,1.7-1.4L13.5,5c3,0.3,5.6,2.3,6.6,5.2l3.3,9.9h67.8c1.9,0,3.7,0.8,4.9,2.3
		c1.2,1.5,1.6,3.4,1.3,5.2l-5.2,24.1C91,57.2,86.1,61.2,80.5,61.2z M36.2,58.1h44.3c4.2,0,7.8-3,8.7-7L94.4,27
		c0.2-0.9,0-1.9-0.6-2.7c-0.6-0.8-1.5-1.2-2.5-1.2H24.4L36.2,58.1z"/>
	<path d="M85.8,73H31.2c-4.1,0-7.5-3.4-7.5-7.5s3.4-7.5,7.5-7.5h3.9c0.8,0,1.5,0.7,1.5,1.5c0,0.8-0.7,1.5-1.5,1.5h-3.9
		c-2.4,0-4.4,2-4.4,4.4c0,2.4,2,4.4,4.4,4.4h54.7c0.8,0,1.5,0.7,1.5,1.5C87.4,72.4,86.7,73,85.8,73z"/>
	<path d="M85.8,87.2c-4.7,0-8.6-3.9-8.6-8.6s3.9-8.6,8.6-8.6s8.6,3.9,8.6,8.6S90.6,87.2,85.8,87.2z M85.8,73c-3.1,0-5.5,2.5-5.5,5.5
		c0,3.1,2.5,5.5,5.5,5.5c3.1,0,5.5-2.5,5.5-5.5C91.4,75.5,88.9,73,85.8,73z"/>
	<path d="M44.3,87.2c-4.7,0-8.6-3.9-8.6-8.6s3.9-8.6,8.6-8.6s8.6,3.9,8.6,8.6C53,83.3,49.1,87.2,44.3,87.2z M44.3,73
		c-3.1,0-5.5,2.5-5.5,5.5c0,3.1,2.5,5.5,5.5,5.5c3.1,0,5.5-2.5,5.5-5.5C49.9,75.5,47.4,73,44.3,73z"/>
</g>
</svg>
