<svg width="1820" height="200" viewBox="0 0 1820 200" fill="none" xmlns="http://www.w3.org/2000/svg"> 
                <g>
                    <line x1="0" y1="0" x2="0" y2="200" stroke="#FF0000" stroke-opacity="0.6" stroke-width="1" />
                    <rect x="0" width="137" height="200" fill="#FF0000" fill-opacity="0.5" />
                    <line x1="137" y1="0" x2="137" y2="200" stroke="#FF0000" stroke-opacity="0.6" stroke-width="1" />
                </g>
            
                <g>
                    <line x1="153" y1="0" x2="153" y2="200" stroke="#FF0000" stroke-opacity="0.6" stroke-width="1" />
                    <rect x="153" width="137" height="200" fill="#FF0000" fill-opacity="0.5" />
                    <line x1="290" y1="0" x2="290" y2="200" stroke="#FF0000" stroke-opacity="0.6" stroke-width="1" />
                </g>
            
                <g>
                    <line x1="306" y1="0" x2="306" y2="200" stroke="#FF0000" stroke-opacity="0.6" stroke-width="1" />
                    <rect x="306" width="137" height="200" fill="#FF0000" fill-opacity="0.5" />
                    <line x1="443" y1="0" x2="443" y2="200" stroke="#FF0000" stroke-opacity="0.6" stroke-width="1" />
                </g>
            
                <g>
                    <line x1="459" y1="0" x2="459" y2="200" stroke="#FF0000" stroke-opacity="0.6" stroke-width="1" />
                    <rect x="459" width="137" height="200" fill="#FF0000" fill-opacity="0.5" />
                    <line x1="596" y1="0" x2="596" y2="200" stroke="#FF0000" stroke-opacity="0.6" stroke-width="1" />
                </g>
            
                <g>
                    <line x1="612" y1="0" x2="612" y2="200" stroke="#FF0000" stroke-opacity="0.6" stroke-width="1" />
                    <rect x="612" width="137" height="200" fill="#FF0000" fill-opacity="0.5" />
                    <line x1="749" y1="0" x2="749" y2="200" stroke="#FF0000" stroke-opacity="0.6" stroke-width="1" />
                </g>
            
                <g>
                    <line x1="765" y1="0" x2="765" y2="200" stroke="#FF0000" stroke-opacity="0.6" stroke-width="1" />
                    <rect x="765" width="137" height="200" fill="#FF0000" fill-opacity="0.5" />
                    <line x1="902" y1="0" x2="902" y2="200" stroke="#FF0000" stroke-opacity="0.6" stroke-width="1" />
                </g>
            
                <g>
                    <line x1="918" y1="0" x2="918" y2="200" stroke="#FF0000" stroke-opacity="0.6" stroke-width="1" />
                    <rect x="918" width="137" height="200" fill="#FF0000" fill-opacity="0.5" />
                    <line x1="1055" y1="0" x2="1055" y2="200" stroke="#FF0000" stroke-opacity="0.6" stroke-width="1" />
                </g>
            
                <g>
                    <line x1="1071" y1="0" x2="1071" y2="200" stroke="#FF0000" stroke-opacity="0.6" stroke-width="1" />
                    <rect x="1071" width="137" height="200" fill="#FF0000" fill-opacity="0.5" />
                    <line x1="1208" y1="0" x2="1208" y2="200" stroke="#FF0000" stroke-opacity="0.6" stroke-width="1" />
                </g>
            
                <g>
                    <line x1="1224" y1="0" x2="1224" y2="200" stroke="#FF0000" stroke-opacity="0.6" stroke-width="1" />
                    <rect x="1224" width="137" height="200" fill="#FF0000" fill-opacity="0.5" />
                    <line x1="1361" y1="0" x2="1361" y2="200" stroke="#FF0000" stroke-opacity="0.6" stroke-width="1" />
                </g>
            
                <g>
                    <line x1="1377" y1="0" x2="1377" y2="200" stroke="#FF0000" stroke-opacity="0.6" stroke-width="1" />
                    <rect x="1377" width="137" height="200" fill="#FF0000" fill-opacity="0.5" />
                    <line x1="1514" y1="0" x2="1514" y2="200" stroke="#FF0000" stroke-opacity="0.6" stroke-width="1" />
                </g>
            
                <g>
                    <line x1="1530" y1="0" x2="1530" y2="200" stroke="#FF0000" stroke-opacity="0.6" stroke-width="1" />
                    <rect x="1530" width="137" height="200" fill="#FF0000" fill-opacity="0.5" />
                    <line x1="1667" y1="0" x2="1667" y2="200" stroke="#FF0000" stroke-opacity="0.6" stroke-width="1" />
                </g>
            
                <g>
                    <line x1="1683" y1="0" x2="1683" y2="200" stroke="#FF0000" stroke-opacity="0.6" stroke-width="1" />
                    <rect x="1683" width="137" height="200" fill="#FF0000" fill-opacity="0.5" />
                    <line x1="1820" y1="0" x2="1820" y2="200" stroke="#FF0000" stroke-opacity="0.6" stroke-width="1" />
                </g>
             </svg>